<svg width="43" height="43" viewBox="0 0 43 43" fill="none" xmlns="http://www.w3.org/2000/svg">
<path d="M21.5 30.4583C22.0077 30.4583 22.4335 30.2863 22.7775 29.9423C23.1215 29.5983 23.2929 29.1731 23.2917 28.6667V21.5C23.2917 20.9924 23.1197 20.5671 22.7757 20.2243C22.4317 19.8815 22.0065 19.7095 21.5 19.7083C20.9936 19.7071 20.5684 19.8791 20.2244 20.2243C19.8804 20.5695 19.7084 20.9948 19.7084 21.5V28.6667C19.7084 29.1743 19.8804 29.6001 20.2244 29.9441C20.5684 30.2881 20.9936 30.4595 21.5 30.4583ZM21.5 16.125C22.0077 16.125 22.4335 15.953 22.7775 15.609C23.1215 15.265 23.2929 14.8398 23.2917 14.3333C23.2905 13.8269 23.1185 13.4017 22.7757 13.0577C22.4329 12.7137 22.0077 12.5417 21.5 12.5417C20.9924 12.5417 20.5672 12.7137 20.2244 13.0577C19.8816 13.4017 19.7096 13.8269 19.7084 14.3333C19.7072 14.8398 19.8792 15.2656 20.2244 15.6108C20.5696 15.956 20.9948 16.1274 21.5 16.125ZM21.5 39.4167C19.0216 39.4167 16.6924 38.9461 14.5125 38.0048C12.3327 37.0636 10.4365 35.7874 8.824 34.176C7.2115 32.5647 5.93524 30.6686 4.99521 28.4875C4.05518 26.3064 3.58457 23.9773 3.58338 21.5C3.58218 19.0227 4.05279 16.6936 4.99521 14.5125C5.93763 12.3314 7.21389 10.4353 8.824 8.82396C10.4341 7.21265 12.3303 5.93639 14.5125 4.99517C16.6948 4.05395 19.024 3.58333 21.5 3.58333C23.9761 3.58333 26.3053 4.05395 28.4875 4.99517C30.6698 5.93639 32.566 7.21265 34.1761 8.82396C35.7862 10.4353 37.0631 12.3314 38.0067 14.5125C38.9503 16.6936 39.4203 19.0227 39.4167 21.5C39.4131 23.9773 38.9425 26.3064 38.0049 28.4875C37.0672 30.6686 35.791 32.5647 34.1761 34.176C32.5612 35.7874 30.665 37.0642 28.4875 38.0066C26.3101 38.949 23.9809 39.4191 21.5 39.4167ZM21.5 35.8333C25.5014 35.8333 28.8907 34.4448 31.6677 31.6677C34.4448 28.8906 35.8334 25.5014 35.8334 21.5C35.8334 17.4986 34.4448 14.1094 31.6677 11.3323C28.8907 8.55521 25.5014 7.16667 21.5 7.16667C17.4987 7.16667 14.1094 8.55521 11.3323 11.3323C8.55525 14.1094 7.16671 17.4986 7.16671 21.5C7.16671 25.5014 8.55525 28.8906 11.3323 31.6677C14.1094 34.4448 17.4987 35.8333 21.5 35.8333Z" fill="black"/>
</svg>
