<?xml version="1.0" standalone="no"?>
<!DOCTYPE svg PUBLIC "-//W3C//DTD SVG 20010904//EN"
 "http://www.w3.org/TR/2001/REC-SVG-20010904/DTD/svg10.dtd">
<svg version="1.0" xmlns="http://www.w3.org/2000/svg"
 width="225.000000pt" height="225.000000pt" viewBox="0 0 225.000000 225.000000"
 preserveAspectRatio="xMidYMid meet">

<g transform="translate(0.000000,225.000000) scale(0.100000,-0.100000)"
fill="#000000" stroke="none">
<path d="M1171 1766 c-9 -11 -9 -16 1 -22 7 -4 10 -4 6 1 -4 4 -3 14 3 22 6 7
9 13 6 13 -2 0 -10 -6 -16 -14z"/>
<path d="M1293 1738 c-45 -15 -50 -35 -8 -30 22 3 35 10 38 23 3 10 4 19 4 18
-1 -1 -16 -6 -34 -11z"/>
<path d="M1261 1674 c0 -11 3 -14 6 -6 3 7 2 16 -1 19 -3 4 -6 -2 -5 -13z"/>
<path d="M1376 1671 c-3 -4 8 -17 23 -29 25 -18 30 -19 35 -6 8 22 9 21 -24
32 -16 6 -32 7 -34 3z m49 -21 c3 -5 2 -10 -4 -10 -5 0 -13 5 -16 10 -3 6 -2
10 4 10 5 0 13 -4 16 -10z"/>
<path d="M1370 1631 c0 -6 4 -13 10 -16 6 -3 7 1 4 9 -7 18 -14 21 -14 7z"/>
<path d="M1495 1581 c3 -2 0 -10 -6 -18 -9 -9 -8 -13 0 -13 6 0 11 5 11 12 0
6 10 3 21 -8 22 -19 22 -19 11 2 -6 12 -9 23 -7 26 2 2 -5 4 -15 4 -10 0 -17
-2 -15 -5z"/>
<path d="M788 1573 c7 -3 16 -2 19 1 4 3 -2 6 -13 5 -11 0 -14 -3 -6 -6z"/>
<path d="M717 1559 c7 -7 15 -10 18 -7 3 3 -2 9 -12 12 -14 6 -15 5 -6 -5z"/>
<path d="M840 1370 l0 -180 125 0 125 0 0 -71 0 -72 -23 34 c-20 30 -28 34
-70 35 -26 0 -50 -3 -52 -7 -3 -4 -13 -5 -24 -2 -13 3 -25 -5 -40 -31 -13 -20
-27 -36 -32 -36 -5 0 -9 -20 -9 -44 0 -33 6 -52 24 -72 26 -30 55 -34 151 -19
41 6 53 4 64 -8 12 -15 15 -15 37 0 22 14 33 14 93 3 59 -11 71 -10 98 3 18
10 35 29 42 48 7 21 11 134 11 315 l0 284 -260 0 -260 0 0 -180z m56 145 c2
-21 -1 -24 -12 -14 -10 8 -14 8 -14 0 0 -6 -4 -11 -10 -11 -21 0 -10 39 13 43
12 2 22 5 22 6 0 0 1 -10 1 -24z m100 9 c-3 -9 -6 -20 -6 -25 0 -5 -4 -9 -10
-9 -5 0 -10 7 -10 17 0 15 -1 15 -18 0 -23 -21 -38 -22 -45 -3 -8 21 9 32 54
33 33 2 40 -1 35 -13z m54 -23 c0 -3 -11 -7 -25 -7 -28 -2 -29 -1 -14 28 11
21 12 21 25 3 8 -10 14 -21 14 -24z m65 29 c5 -8 11 -7 21 1 11 9 18 9 26 1 8
-8 16 -7 29 1 14 9 21 9 31 -1 8 -8 15 -9 25 -1 9 8 17 8 27 0 10 -9 16 -9 21
-1 11 17 38 7 41 -16 3 -18 -2 -21 -41 -21 -25 -1 -48 3 -51 9 -3 5 -12 4 -21
-3 -11 -10 -19 -10 -33 -1 -14 9 -20 8 -23 -1 -3 -9 -9 -9 -25 0 -13 8 -23 9
-27 3 -12 -20 -35 -10 -35 15 0 25 23 35 35 15z m-205 -139 c0 -5 8 -12 18
-15 11 -4 18 -15 18 -29 -1 -12 4 -21 9 -20 6 1 12 -8 12 -19 1 -12 9 -28 17
-36 12 -12 14 -11 13 14 -1 16 -9 37 -18 47 -21 23 -31 69 -15 64 6 -2 11 -10
11 -18 1 -17 24 -13 46 7 23 21 29 17 29 -16 0 -20 -9 -39 -25 -54 -31 -29
-32 -39 -2 -31 19 5 18 3 -8 -19 -16 -14 -38 -26 -47 -26 -19 0 -80 49 -62 50
6 0 17 -7 24 -15 10 -12 15 -13 21 -4 4 8 -5 20 -24 33 -25 17 -33 30 -35 59
-2 21 1 37 7 37 6 0 11 -4 11 -9z m430 -70 c0 -16 3 -49 6 -75 l7 -46 -120 0
c-108 0 -121 2 -125 18 -5 17 11 131 19 142 2 2 38 7 81 10 95 6 132 -7 132
-49z m-100 -211 c25 -50 25 -85 0 -110 -11 -11 -20 -29 -20 -39 0 -22 -17 -37
-28 -26 -4 4 -2 10 4 12 7 2 10 13 7 24 -4 12 1 25 13 34 17 12 18 15 3 47
-14 28 -16 98 -3 98 2 0 13 -18 24 -40z"/>
<path d="M1203 1315 c0 -22 2 -30 4 -17 2 12 2 30 0 40 -3 9 -5 -1 -4 -23z"/>
<path d="M1243 1315 c0 -22 2 -30 4 -17 2 12 2 30 0 40 -3 9 -5 -1 -4 -23z"/>
<path d="M1132 1315 c0 -16 2 -22 5 -12 2 9 2 23 0 30 -3 6 -5 -1 -5 -18z"/>
<path d="M1172 1315 c0 -16 2 -22 5 -12 2 9 2 23 0 30 -3 6 -5 -1 -5 -18z"/>
<path d="M1282 1310 c0 -19 2 -27 5 -17 2 9 2 25 0 35 -3 9 -5 1 -5 -18z"/>
<path d="M1562 1458 c-7 -9 -6 -17 3 -25 11 -10 15 -10 18 0 4 9 6 9 6 0 1 -7
6 -13 13 -13 6 0 8 3 5 7 -4 3 -2 12 4 20 10 11 15 11 28 1 14 -12 14 -11 2 5
-8 10 -18 14 -25 9 -6 -5 -19 -12 -30 -16 -14 -5 -17 -2 -12 9 7 18 2 19 -12
3z"/>
<path d="M1602 1305 c0 -16 2 -22 5 -12 2 9 2 23 0 30 -3 6 -5 -1 -5 -18z"/>
<path d="M1620 1307 c0 -15 4 -27 10 -27 5 0 9 9 7 20 -5 31 -17 36 -17 7z"/>
<path d="M615 1181 c-3 -5 -2 -12 3 -15 5 -3 9 1 9 9 0 17 -3 19 -12 6z"/>
<path d="M1621 1154 c0 -11 3 -14 6 -6 3 7 2 16 -1 19 -3 4 -6 -2 -5 -13z"/>
<path d="M581 1144 c0 -11 3 -14 6 -6 3 7 2 16 -1 19 -3 4 -6 -2 -5 -13z"/>
<path d="M1596 1143 c-3 -10 -9 -24 -12 -30 -3 -7 -1 -13 4 -13 5 0 13 12 16
26 8 30 2 44 -8 17z"/>
<path d="M1670 1146 c0 -2 8 -10 18 -17 15 -13 16 -12 3 4 -13 16 -21 21 -21
13z"/>
<path d="M1686 1103 c5 -5 12 -12 16 -18 4 -6 8 -2 8 8 0 9 -7 17 -17 17 -9 0
-12 -3 -7 -7z"/>
<path d="M1502 1034 c-7 -8 -8 -14 -3 -14 10 0 25 19 20 25 -2 1 -10 -3 -17
-11z"/>
<path d="M1552 1008 c-10 -30 -10 -31 3 -14 13 17 21 46 12 46 -1 0 -8 -15
-15 -32z"/>
<path d="M1580 1020 c0 -5 5 -10 11 -10 5 0 7 5 4 10 -3 6 -8 10 -11 10 -2 0
-4 -4 -4 -10z"/>
<path d="M765 989 c-4 -6 -5 -12 -2 -15 2 -3 7 2 10 11 7 17 1 20 -8 4z"/>
<path d="M1478 923 c7 -3 16 -2 19 1 4 3 -2 6 -13 5 -11 0 -14 -3 -6 -6z"/>
<path d="M691 894 c0 -11 3 -14 6 -6 3 7 2 16 -1 19 -3 4 -6 -2 -5 -13z"/>
<path d="M1501 886 c-9 -11 -7 -15 9 -19 16 -4 19 -2 11 7 -6 7 -8 16 -4 19 3
4 4 7 1 7 -3 0 -11 -6 -17 -14z"/>
<path d="M1053 863 c9 -2 25 -2 35 0 9 3 1 5 -18 5 -19 0 -27 -2 -17 -5z"/>
<path d="M1193 863 c9 -2 25 -2 35 0 9 3 1 5 -18 5 -19 0 -27 -2 -17 -5z"/>
<path d="M1288 853 c7 -3 16 -2 19 1 4 3 -2 6 -13 5 -11 0 -14 -3 -6 -6z"/>
<path d="M1150 828 c0 -13 -3 -33 -6 -45 -5 -17 -2 -23 9 -23 9 0 18 10 20 23
l4 22 8 -22 c12 -36 31 -27 32 14 1 41 -9 53 -44 53 -17 0 -23 -6 -23 -22z
m50 -8 c0 -5 -7 -10 -15 -10 -8 0 -15 5 -15 10 0 6 7 10 15 10 8 0 15 -4 15
-10z"/>
<path d="M1338 843 c7 -3 16 -2 19 1 4 3 -2 6 -13 5 -11 0 -14 -3 -6 -6z"/>
<path d="M1020 800 c0 -29 4 -40 15 -40 8 0 15 6 15 14 0 7 9 16 20 19 12 3
20 14 20 26 0 17 -6 21 -35 21 -34 0 -35 -1 -35 -40z m50 20 c0 -5 -7 -10 -16
-10 -8 0 -12 5 -9 10 3 6 10 10 16 10 5 0 9 -4 9 -10z"/>
<path d="M911 822 c-21 -3 -23 -7 -17 -45 8 -51 9 -51 43 -40 21 7 29 17 31
41 4 35 -17 51 -57 44z m36 -56 c-4 -9 -10 -16 -16 -16 -10 0 -21 47 -13 55
11 10 35 -23 29 -39z"/>
<path d="M1284 817 c-2 -7 -6 -27 -7 -43 -2 -27 1 -29 32 -29 44 0 61 35 31
65 -23 23 -48 26 -56 7z m46 -38 c0 -10 -7 -19 -15 -19 -15 0 -21 31 -9 43 11
10 24 -3 24 -24z"/>
<path d="M1444 810 c28 -11 51 -18 53 -16 6 6 -64 36 -84 36 -10 -1 4 -10 31
-20z"/>
<path d="M776 801 c-4 -5 3 -7 14 -4 23 6 26 13 6 13 -8 0 -17 -4 -20 -9z"/>
<path d="M1513 737 c-10 -22 -9 -24 15 -18 18 3 21 6 10 9 -10 2 -15 9 -11 18
9 23 -3 16 -14 -9z"/>
<path d="M1702 710 c-23 -28 -29 -41 -20 -46 7 -4 10 -3 5 1 -4 5 7 24 25 42
17 18 30 35 27 37 -2 3 -19 -13 -37 -34z"/>
<path d="M1076 733 c-4 -4 -21 -7 -39 -7 -24 1 -26 0 -6 -3 22 -4 25 -8 21
-36 -3 -18 -10 -38 -16 -46 -9 -12 -8 -12 10 -1 15 9 19 20 16 41 -3 22 0 29
12 29 10 0 14 5 11 10 -4 6 16 10 52 9 37 0 51 -3 39 -8 -15 -6 -16 -9 -5 -13
8 -3 20 0 26 7 10 10 9 14 -3 19 -22 8 -109 7 -118 -1z"/>
<path d="M1678 733 c6 -2 18 -2 25 0 6 3 1 5 -13 5 -14 0 -19 -2 -12 -5z"/>
<path d="M1233 723 c9 -2 23 -2 30 0 6 3 -1 5 -18 5 -16 0 -22 -2 -12 -5z"/>
<path d="M1598 723 c12 -2 32 -2 45 0 12 2 2 4 -23 4 -25 0 -35 -2 -22 -4z"/>
<path d="M504 712 c5 -8 66 -4 66 4 0 2 -16 4 -36 4 -19 0 -33 -4 -30 -8z"/>
<path d="M958 713 c7 -3 16 -2 19 1 4 3 -2 6 -13 5 -11 0 -14 -3 -6 -6z"/>
<path d="M1110 706 c4 -4 16 -4 26 2 16 9 14 10 -8 9 -15 -1 -23 -6 -18 -11z"/>
<path d="M1298 713 c7 -3 16 -2 19 1 4 3 -2 6 -13 5 -11 0 -14 -3 -6 -6z"/>
<path d="M628 703 c18 -2 45 -2 60 0 15 2 0 4 -33 4 -33 0 -45 -2 -27 -4z"/>
<path d="M548 677 c12 -13 19 -27 15 -32 -5 -4 -2 -5 5 -1 11 6 8 13 -9 32
-12 13 -25 24 -27 24 -3 0 4 -10 16 -23z"/>
<path d="M1390 689 c7 -8 24 -15 38 -16 29 -1 16 9 -27 22 -20 6 -22 5 -11 -6z"/>
<path d="M811 674 c-19 -8 -42 -12 -50 -9 -14 5 -14 4 -1 -9 8 -8 29 -17 45
-21 29 -5 29 -5 5 5 -23 10 -24 12 -7 21 10 6 24 8 32 5 7 -2 16 2 19 10 7 17
0 17 -43 -2z"/>
<path d="M1180 676 c0 -8 -8 -17 -17 -19 -10 -3 -6 -4 9 -4 15 1 24 5 21 10
-3 5 1 13 8 18 11 7 10 9 -3 9 -10 0 -18 -6 -18 -14z"/>
<path d="M1464 665 c-10 -8 -14 -14 -9 -15 15 0 40 18 34 24 -3 3 -14 -1 -25
-9z"/>
<path d="M1104 659 c-5 -8 -3 -9 6 -4 7 4 16 2 22 -6 8 -12 9 -12 6 0 -6 20
-24 25 -34 10z"/>
<path d="M1390 643 c0 -13 5 -23 10 -23 13 0 13 11 0 30 -8 12 -10 11 -10 -7z"/>
<path d="M847 636 c-4 -10 -5 -21 -2 -24 9 -9 17 6 13 25 -3 17 -4 17 -11 -1z"/>
<path d="M1749 632 c12 -8 11 -11 -3 -15 -15 -4 -15 -5 1 -3 19 1 21 19 1 24
-10 3 -10 1 1 -6z"/>
<path d="M480 600 c0 -6 7 -10 15 -10 8 0 15 2 15 4 0 2 -7 6 -15 10 -8 3 -15
1 -15 -4z"/>
<path d="M1548 593 c23 -2 61 -2 85 0 23 2 4 4 -43 4 -47 0 -66 -2 -42 -4z"/>
<path d="M528 583 c7 -3 16 -2 19 1 4 3 -2 6 -13 5 -11 0 -14 -3 -6 -6z"/>
<path d="M748 583 c7 -3 16 -2 19 1 4 3 -2 6 -13 5 -11 0 -14 -3 -6 -6z"/>
<path d="M608 573 c23 -2 59 -2 80 0 20 2 1 4 -43 4 -44 0 -61 -2 -37 -4z"/>
</g>
</svg>
